<?xml version="1.0" encoding="utf-8"?>
<!-- Generator: Adobe Illustrator 19.0.0, SVG Export Plug-In . SVG Version: 6.00 Build 0)  -->
<svg version="1.1" id="Camada_1" xmlns="http://www.w3.org/2000/svg" xmlns:xlink="http://www.w3.org/1999/xlink" x="0px" y="0px"
	 viewBox="82 157.6 687 526.3" style="enable-background:new 82 157.6 687 526.3;" xml:space="preserve">
<style type="text/css">
	.st0{fill:#FFFFFF;}
	.st1{font-family:'Calibri';}
	.st2{font-size:15.1168px;}
	.st3{fill:#DFDFDF;}
	.st4{fill:#F8E2C1;}
	.st5{fill:none;stroke:#000000;stroke-linecap:round;stroke-linejoin:round;stroke-miterlimit:3;}
	.st6{font-family:'Calibri-Bold';}
	.st7{fill:#E5F2FE;}
	.st8{fill:none;stroke:#000000;stroke-linecap:round;stroke-linejoin:round;stroke-miterlimit:3;stroke-dasharray:7,4;}
	.st9{font-size:7.1985px;}
</style>
<rect x="82" y="157.6" class="st0" width="687" height="526.3"/>
<g transform="matrix(1 0 0 -1 0 841)">
	<g>
		<g transform="matrix(0.75 0 0 0.75 0 841.650024)">
			<g transform="matrix(0.958888 0 0 -0.959795 0 0)">
				<text transform="matrix(1.3892 0 0 1.3892 687.3929 284.7928)" class="st1 st2">SAPUZ</text>
				<path class="st3" d="M214.4,512.3c0-5.8,4.7-10.5,10.5-10.5s10.5,4.7,10.5,10.5s-4.7,10.5-10.5,10.5S214.4,518.1,214.4,512.3"/>
				<path class="st4" d="M212.4,510.3c0-5.8,4.7-10.5,10.5-10.5s10.5,4.7,10.5,10.5s-4.7,10.5-10.5,10.5S212.4,516.1,212.4,510.3"/>
				<path class="st5" d="M212.4,510.3c0-5.8,4.7-10.5,10.5-10.5s10.5,4.7,10.5,10.5s-4.7,10.5-10.5,10.5S212.4,516.1,212.4,510.3
					 M212.4,510.3c0-5.8,4.7-10.5,10.5-10.5s10.5,4.7,10.5,10.5s-4.7,10.5-10.5,10.5S212.4,516.1,212.4,510.3 M223.4,521.8v21
					 M208.4,526.8h15 M238.4,526.8h-15 M223.4,542.8l12,21"/>
				<path class="st5" d="M223.4,542.8l-12,21"/>
				<text transform="matrix(1.3892 0 0 1.3892 198.3927 583.7929)" class="st6 st2">AC00-</text>
				<text transform="matrix(1.3892 0 0 1.3892 184.3926 609.793)" class="st6 st2">USUARIO</text>
				<path class="st3" d="M457.4,572.3c0-26.8,32.7-48.5,73-48.5c40.3,0,73,21.7,73,48.5s-32.7,48.5-73,48.5S457.4,599.1,457.4,572.3
					"/>
				<path class="st7" d="M455.4,570.3c0-26.8,32.7-48.5,73-48.5c40.3,0,73,21.7,73,48.5s-32.7,48.5-73,48.5S455.4,597.1,455.4,570.3
					"/>
				<path class="st5" d="M455.4,570.3c0-26.8,32.7-48.5,73-48.5c40.3,0,73,21.7,73,48.5s-32.7,48.5-73,48.5S455.4,597.1,455.4,570.3
					 M455.4,570.3c0-26.8,32.7-48.5,73-48.5c40.3,0,73,21.7,73,48.5s-32.7,48.5-73,48.5S455.4,597.1,455.4,570.3"/>
				<text transform="matrix(1.3892 0 0 1.3892 468.3919 564.7925)" class="st6 st2">UC01-Efetuar </text>
				<text transform="matrix(1.3892 0 0 1.3892 505.3923 590.7932)" class="st6 st2">Login</text>
				<path class="st3" d="M765.4,410.3c0-34,41.4-61.5,92.5-61.5s92.5,27.5,92.5,61.5s-41.4,61.5-92.5,61.5S765.4,444.2,765.4,410.3"
					/>
				<path class="st7" d="M763.4,408.3c0-34,41.4-61.5,92.5-61.5s92.5,27.5,92.5,61.5s-41.4,61.5-92.5,61.5S763.4,442.2,763.4,408.3"
					/>
				<path class="st5" d="M763.4,408.3c0-34,41.4-61.5,92.5-61.5s92.5,27.5,92.5,61.5s-41.4,61.5-92.5,61.5S763.4,442.2,763.4,408.3
					 M763.4,408.3c0-34,41.4-61.5,92.5-61.5s92.5,27.5,92.5,61.5s-41.4,61.5-92.5,61.5S763.4,442.2,763.4,408.3"/>
				<text transform="matrix(1.3892 0 0 1.3892 763.3924 402.7927)" class="st6 st2">UC02-Cadastrar Bem </text>
				<text transform="matrix(1.3892 0 0 1.3892 793.3927 428.7934)" class="st6 st2">no património</text>
				<path class="st3" d="M825.4,828.3c0-34,41.4-61.5,92.5-61.5s92.5,27.5,92.5,61.5s-41.4,61.5-92.5,61.5S825.4,862.2,825.4,828.3"
					/>
				<path class="st7" d="M823.4,826.3c0-34,41.4-61.5,92.5-61.5s92.5,27.5,92.5,61.5s-41.4,61.5-92.5,61.5S823.4,860.2,823.4,826.3"
					/>
				<path class="st5" d="M823.4,826.3c0-34,41.4-61.5,92.5-61.5s92.5,27.5,92.5,61.5s-41.4,61.5-92.5,61.5S823.4,860.2,823.4,826.3
					 M823.4,826.3c0-34,41.4-61.5,92.5-61.5s92.5,27.5,92.5,61.5s-41.4,61.5-92.5,61.5S823.4,860.2,823.4,826.3"/>
				<text transform="matrix(1.3892 0 0 1.3892 852.3925 807.7927)" class="st6 st2">UC03-Registar </text>
				<text transform="matrix(1.3892 0 0 1.3892 845.3925 833.794)" class="st6 st2">Tranferencia de </text>
				<text transform="matrix(1.3892 0 0 1.3892 895.3921 859.794)" class="st6 st2">bens</text>
				<path class="st3" d="M444.4,346.3c0-35.1,42.8-63.5,95.5-63.5s95.5,28.4,95.5,63.5s-42.8,63.5-95.5,63.5
					S444.4,381.3,444.4,346.3"/>
				<path class="st7" d="M442.4,344.3c0-35.1,42.8-63.5,95.5-63.5c52.7,0,95.5,28.4,95.5,63.5s-42.8,63.5-95.5,63.5
					S442.4,379.3,442.4,344.3"/>
				<path class="st5" d="M442.4,344.3c0-35.1,42.8-63.5,95.5-63.5c52.7,0,95.5,28.4,95.5,63.5s-42.8,63.5-95.5,63.5
					S442.4,379.3,442.4,344.3 M442.4,344.3c0-35.1,42.8-63.5,95.5-63.5c52.7,0,95.5,28.4,95.5,63.5s-42.8,63.5-95.5,63.5
					S442.4,379.3,442.4,344.3"/>
				<text transform="matrix(1.3892 0 0 1.3892 470.3922 325.7925)" class="st6 st2">UC04-Registrar </text>
				<text transform="matrix(1.3892 0 0 1.3892 456.3921 351.7932)" class="st6 st2">Movimentação de </text>
				<text transform="matrix(1.3892 0 0 1.3892 517.3921 377.7925)" class="st6 st2">bens</text>
				<path class="st3" d="M427.4,809.3c0-34,41.4-61.5,92.5-61.5c51.1,0,92.5,27.5,92.5,61.5s-41.4,61.5-92.5,61.5
					S427.4,843.2,427.4,809.3"/>
				<path class="st7" d="M425.4,807.3c0-34,41.4-61.5,92.5-61.5c51.1,0,92.5,27.5,92.5,61.5s-41.4,61.5-92.5,61.5
					S425.4,841.2,425.4,807.3"/>
				<path class="st5" d="M425.4,807.3c0-34,41.4-61.5,92.5-61.5c51.1,0,92.5,27.5,92.5,61.5s-41.4,61.5-92.5,61.5
					S425.4,841.2,425.4,807.3 M425.4,807.3c0-34,41.4-61.5,92.5-61.5c51.1,0,92.5,27.5,92.5,61.5s-41.4,61.5-92.5,61.5
					S425.4,841.2,425.4,807.3"/>
				<text transform="matrix(1.3892 0 0 1.3892 450.3929 801.7936)" class="st6 st2">UC05-Registrar </text>
				<text transform="matrix(1.3892 0 0 1.3892 450.3929 827.7936)" class="st6 st2">Abate dos bens</text>
				<path class="st5" d="M864.4,470.8l1,7 M865.4,481.8l1,7 M867.4,492.8l1,7 M868.4,503.8l1,7 M870.4,514.8l1,7 M872.4,525.8l1,7
					 M873.4,536.8l1,7 M875.4,547.8l1,7 M876.4,558.8l1,7 M878.4,569.8l1,7 M880.4,580.8l1,7 M881.4,591.8l1,7 M883.4,602.8l1,7
					 M884.4,613.8l1,7 M886.4,624.8l1,7 M888.4,635.8l1,7 M889.4,646.8l1,7 M891.4,657.8l1,7 M892.4,668.8l1,7 M894.4,679.8l1,7
					 M896.4,690.8l1,7 M897.4,701.8l1,7 M899.4,712.8l1,7 M901.4,723.8l1,7 M902.4,734.8l1,7 M904.4,745.8l1,7 M905.4,756.8l1,7"/>
				<path class="st5" d="M864.4,470.8l8,14 M864.4,470.8l-4,16"/>
				<path class="st5" d="M266.4,596.8l177,149"/>
				<path class="st5" d="M266.4,577.8l557,213"/>
				<path class="st5" d="M266.4,550.8l497-120"/>
				<path class="st5" d="M763.4,389.8l-7-1 M752.4,387.8l-7-1 M741.4,385.8l-7-1 M730.4,383.8l-7-2 M719.4,381.8l-7-2 M708.4,378.8
					l-7-1 M697.4,376.8l-7-1 M686.4,374.8l-7-1 M675.4,372.8l-7-2 M664.4,370.8l-7-2 M653.4,367.8l-7-1 M642.4,365.8l-7-1"/>
				<path class="st5" d="M763.4,389.8l-16,3 M763.4,389.8l-14-9"/>
				<path class="st5" d="M266.4,531.8l179-123"/>
				<path class="st5" d="M266.4,562.8l189,5"/>
				<path class="st8" d="M525.4,619.8v18"/>
				<path class="st5" d="M525.4,641.8l-1,7 M524.4,652.8v7 M524.4,663.8l-1,7 M523.4,674.8v7 M523.4,685.8v7 M522.4,696.8v7
					 M522.4,707.8v7 M522.4,718.8l-1,7 M521.4,729.8v7 M521.4,740.8l-1,5"/>
				<path class="st5" d="M525.4,619.8l5,15 M525.4,619.8l-7,15"/>
				<path class="st5" d="M602.4,618.8l7,4 M613.4,625.8l7,4 M624.4,632.8l7,5 M635.4,639.8l7,5 M646.4,647.8l7,4 M657.4,654.8l7,4
					 M668.4,661.8l7,5 M679.4,668.8l7,5 M690.4,676.8l7,4 M701.4,683.8l7,5 M712.4,690.8l7,5 M723.4,697.8l7,5 M734.4,705.8l7,4
					 M745.4,712.8l7,5 M756.4,719.8l7,5 M767.4,727.8l7,4 M778.4,734.8l7,4 M789.4,741.8l7,5 M800.4,748.8l7,5 M811.4,756.8l7,4
					 M822.4,763.8l1,1"/>
				<path class="st5" d="M602.4,618.8l16,3 M602.4,618.8l9,13"/>
				<path class="st5" d="M602.4,533.8l7-3 M613.4,528.8l7-3 M624.4,523.8l7-4 M635.4,517.8l7-3 M646.4,512.8l7-4 M657.4,506.8l7-3
					 M668.4,501.8l7-4 M679.4,495.8l7-3 M690.4,490.8l7-4 M701.4,484.8l7-3 M712.4,479.8l7-4 M723.4,473.8l7-3 M734.4,468.8l7-4
					 M745.4,462.8l7-3 M756.4,457.8l7-4"/>
				<path class="st5" d="M602.4,533.8l11-12 M602.4,533.8l16-1"/>
				<path class="st8" d="M530.4,521.8v-18"/>
				<path class="st5" d="M530.4,499.8l1-7 M531.4,488.8v-7 M531.4,477.8l1-7 M532.4,466.8v-7 M532.4,455.8l1-7 M533.4,444.8v-7
					 M533.4,433.8l1-7 M534.4,422.8v-7 M534.4,411.8l1-3"/>
				<path class="st5" d="M530.4,521.8l-5-15 M530.4,521.8l7-15"/>
				<path class="st5" d="M803.4,470.8l-5,7 M794.4,481.8l-6,7 M785.4,492.8l-6,7 M776.4,503.8l-6,7 M766.4,514.8l-6,7 M757.4,525.8
					l-6,7 M748.4,536.8l-6,7 M738.4,547.8l-6,7 M729.4,558.8l-6,7 M720.4,569.8l-6,7 M710.4,580.8l-6,7 M701.4,591.8l-6,7
					 M692.4,602.8l-6,7 M682.4,613.8l-6,7 M673.4,624.8l-6,7 M664.4,635.8l-6,7 M654.4,646.8l-6,7 M645.4,657.8l-6,7 M636.4,668.8
					l-6,7 M626.4,679.8l-6,7 M617.4,690.8l-6,7 M608.4,701.8l-6,7 M598.4,712.8l-5,7 M589.4,723.8l-6,7 M580.4,734.8l-6,7"/>
				<path class="st5" d="M803.4,470.8l-5,15 M803.4,470.8l-14,8"/>
				<g transform="matrix(1 0 0 -1 356 476)">
					<polygon class="st0" points="147.4,-209.8 187.4,-209.8 187.4,-209.8 					"/>
				</g>
				<text transform="matrix(1.3892 0 0 1.3892 503.3921 694.7933)" class="st1 st9">«include»</text>
				<g transform="matrix(1 0 0 -1 532 170)">
					<polygon class="st0" points="147.4,-209.8 187.4,-209.8 187.4,-209.8 					"/>
				</g>
				<text transform="matrix(1.3892 0 0 1.3892 679.3921 388.7928)" class="st1 st9">«include»</text>
				<g transform="matrix(1 0 0 -1 520 401)">
					<polygon class="st0" points="147.4,-209.8 187.4,-209.8 187.4,-209.8 					"/>
				</g>
				<text transform="matrix(1.3892 0 0 1.3892 667.3923 619.7921)" class="st1 st9">«include»</text>
				<g transform="matrix(1 0 0 -1 366 258)">
					<polygon class="st0" points="147.4,-209.8 187.4,-209.8 187.4,-209.8 					"/>
				</g>
				<text transform="matrix(1.3892 0 0 1.3892 513.3931 476.7934)" class="st1 st9">«include»</text>
				<g transform="matrix(1 0 0 -1 719 411)">
					<polygon class="st0" points="147.4,-209.8 187.4,-209.8 187.4,-209.8 					"/>
				</g>
				<text transform="matrix(1.3892 0 0 1.3892 866.3926 629.7933)" class="st1 st9">«include»</text>
				<g transform="matrix(1 0 0 -1 516 287)">
					<polygon class="st0" points="147.4,-209.8 187.4,-209.8 187.4,-209.8 					"/>
				</g>
				<text transform="matrix(1.3892 0 0 1.3892 663.3932 505.7922)" class="st1 st9">«include»</text>
				<g transform="matrix(1 0 0 -1 546 485)">
					<polygon class="st0" points="147.4,-209.8 187.4,-209.8 187.4,-209.8 					"/>
				</g>
				<text transform="matrix(1.3892 0 0 1.3892 693.3922 703.7925)" class="st1 st9">«include»</text>
			</g>
		</g>
	</g>
</g>
</svg>
