<?xml version="1.0" encoding="utf-8"?>
<!-- Generator: Adobe Illustrator 19.0.0, SVG Export Plug-In . SVG Version: 6.00 Build 0)  -->
<svg version="1.1" id="Camada_1" xmlns="http://www.w3.org/2000/svg" xmlns:xlink="http://www.w3.org/1999/xlink" x="0px" y="0px"
	 viewBox="85 196.8 544.5 502.9" style="enable-background:new 85 196.8 544.5 502.9;" xml:space="preserve">
<style type="text/css">
	.st0{fill:#FFFFFF;}
	.st1{fill:none;stroke:#000000;stroke-linecap:round;stroke-linejoin:round;stroke-miterlimit:3;}
	.st2{font-family:'Calibri';}
	.st3{font-size:15.1153px;}
	.st4{fill:#DFDFDF;}
	.st5{fill:#F8E2C1;}
	.st6{font-family:'Calibri-Bold';}
	.st7{font-family:'Calibri-Italic';}
	.st8{fill:#E5F2FE;}
	.st9{font-size:7.1978px;}
</style>
<rect x="85" y="196.8" class="st0" width="544.5" height="502.9"/>
<g transform="matrix(1 0 0 -1 0 768)">
	<g>
		<g transform="matrix(0.75 0 0 0.75 0 768.200012)">
			<g transform="matrix(0.959509 0 0 -0.9597 0 0)">
				<g transform="matrix(724 0 0 -673 66 699)">
				</g>
				<path class="st1" d="M312.8,310.5c0-5,0-5,5-5h497c5,0,5,0,5,5v588c0,5,0,5-5,5h-497c-5,0-5,0-5-5V310.5"/>
				<text transform="matrix(1.3893 0 0 1.3893 538.7657 329.4765)" class="st2 st3">SAPUZ</text>
				<path class="st4" d="M192.8,506c0-5.8,4.7-10.5,10.5-10.5s10.5,4.7,10.5,10.5s-4.7,10.5-10.5,10.5S192.8,511.8,192.8,506"/>
				<path class="st5" d="M190.8,504c0-5.8,4.7-10.5,10.5-10.5s10.5,4.7,10.5,10.5s-4.7,10.5-10.5,10.5S190.8,509.8,190.8,504"/>
				<path class="st1" d="M190.8,504c0-5.8,4.7-10.5,10.5-10.5s10.5,4.7,10.5,10.5s-4.7,10.5-10.5,10.5S190.8,509.8,190.8,504
					 M190.8,504c0-5.8,4.7-10.5,10.5-10.5s10.5,4.7,10.5,10.5s-4.7,10.5-10.5,10.5S190.8,509.8,190.8,504 M201.8,515.5v21
					 M186.8,520.5h15 M216.8,520.5h-15 M201.8,536.5l12,21"/>
				<path class="st1" d="M201.8,536.5l-12,21"/>
				<text transform="matrix(1.3893 0 0 1.3893 144.7667 577.4767)" class="st6 st3">AC01-Admin-</text>
				<text transform="matrix(1.3893 0 0 1.3893 179.7666 603.4765)" class="st6 st3">Local</text>
				<text transform="matrix(1.3893 0 0 1.3893 176.7668 634.4766)" class="st7 st3">(from </text>
				<text transform="matrix(1.3893 0 0 1.3893 172.767 660.4765)" class="st7 st3">Actors)</text>
				<path class="st4" d="M328.8,423.5c0-50.3,61.1-91,136.5-91s136.5,40.7,136.5,91s-61.1,91-136.5,91S328.8,473.8,328.8,423.5"/>
				<path class="st8" d="M326.8,421.5c0-50.3,61.1-91,136.5-91s136.5,40.7,136.5,91s-61.1,91-136.5,91S326.8,471.8,326.8,421.5"/>
				<path class="st1" d="M326.8,421.5c0-50.3,61.1-91,136.5-91s136.5,40.7,136.5,91s-61.1,91-136.5,91S326.8,471.8,326.8,421.5
					 M326.8,421.5c0-50.3,61.1-91,136.5-91s136.5,40.7,136.5,91s-61.1,91-136.5,91S326.8,471.8,326.8,421.5"/>
				<text transform="matrix(1.3893 0 0 1.3893 381.7667 538.4766)" class="st7 st3">(from Admin Local)</text>
				<text transform="matrix(1.3893 0 0 1.3893 354.7665 415.4767)" class="st6 st3">U</text>
				<text transform="matrix(1.3893 0 0 1.3893 368.767 415.4767)" class="st6 st3">C</text>
				<text transform="matrix(1.3893 0 0 1.3893 379.7664 415.4767)" class="st6 st3">0</text>
				<text transform="matrix(1.3893 0 0 1.3893 389.7664 415.4767)" class="st6 st3">6</text>
				<text transform="matrix(1.3893 0 0 1.3893 400.7665 415.4767)" class="st6 st3">-</text>
				<text transform="matrix(1.3893 0 0 1.3893 406.7659 415.4767)" class="st6 st3">C</text>
				<text transform="matrix(1.3893 0 0 1.3893 418.7661 415.4767)" class="st6 st3">r</text>
				<text transform="matrix(1.3893 0 0 1.3893 425.7657 415.4767)" class="st6 st3">i</text>
				<text transform="matrix(1.3893 0 0 1.3893 430.7664 415.4767)" class="st6 st3">a</text>
				<text transform="matrix(1.3893 0 0 1.3893 441.7665 415.4767)" class="st6 st3">r</text>
				<text transform="matrix(1.3893 0 0 1.3893 448.766 415.4767)" class="st6 st3"> </text>
				<text transform="matrix(1.3893 0 0 1.3893 453.7667 415.4767)" class="st6 st3">r</text>
				<text transform="matrix(1.3893 0 0 1.3893 460.7662 415.4767)" class="st6 st3">e</text>
				<text transform="matrix(1.3893 0 0 1.3893 471.7663 415.4767)" class="st6 st3">p</text>
				<text transform="matrix(1.3893 0 0 1.3893 482.7664 415.4767)" class="st6 st3">a</text>
				<text transform="matrix(1.3893 0 0 1.3893 493.7666 415.4767)" class="st6 st3">r</text>
				<text transform="matrix(1.3893 0 0 1.3893 500.7661 415.4767)" class="st6 st3">t</text>
				<text transform="matrix(1.3893 0 0 1.3893 508.0466 415.4767)" class="st6 st3">i</text>
				<text transform="matrix(1.3893 0 0 1.3893 512.7664 415.4767)" class="st6 st3">ç</text>
				<text transform="matrix(1.3893 0 0 1.3893 521.7662 415.4767)" class="st6 st3">õ</text>
				<text transform="matrix(1.3893 0 0 1.3893 532.7662 415.4767)" class="st6 st3">e</text>
				<text transform="matrix(1.3893 0 0 1.3893 543.7664 415.4767)" class="st6 st3">s</text>
				<text transform="matrix(1.3893 0 0 1.3893 551.7661 415.4767)" class="st6 st3"> </text>
				<text transform="matrix(1.3893 0 0 1.3893 556.7653 415.4767)" class="st6 st3">e</text>
				<text transform="matrix(1.3893 0 0 1.3893 567.7654 415.4767)" class="st6 st3"> </text>
				<text transform="matrix(1.3893 0 0 1.3893 359.7665 441.4766)" class="st6 st3">departamentos/Setores</text>
				<path class="st4" d="M664.8,512c0-26.8,32.7-48.5,73-48.5s73,21.7,73,48.5c0,26.8-32.7,48.5-73,48.5S664.8,538.8,664.8,512"/>
				<path class="st8" d="M662.8,510c0-26.8,32.7-48.5,73-48.5s73,21.7,73,48.5c0,26.8-32.7,48.5-73,48.5S662.8,536.8,662.8,510"/>
				<path class="st1" d="M662.8,510c0-26.8,32.7-48.5,73-48.5s73,21.7,73,48.5c0,26.8-32.7,48.5-73,48.5S662.8,536.8,662.8,510
					 M662.8,510c0-26.8,32.7-48.5,73-48.5s73,21.7,73,48.5c0,26.8-32.7,48.5-73,48.5S662.8,536.8,662.8,510"/>
				<text transform="matrix(1.3893 0 0 1.3893 671.7656 584.4761)" class="st7 st3">(from Systema </text>
				<text transform="matrix(1.3893 0 0 1.3893 705.7659 610.4766)" class="st7 st3">Basico)</text>
				<text transform="matrix(1.3893 0 0 1.3893 675.7661 504.476)" class="st6 st3">UC01-Efetuar </text>
				<text transform="matrix(1.3893 0 0 1.3893 712.7655 530.4766)" class="st6 st3">Login</text>
				<path class="st4" d="M362.8,754c0-62.7,76.3-113.5,170.5-113.5S703.8,691.3,703.8,754s-76.3,113.5-170.5,113.5
					S362.8,816.7,362.8,754"/>
				<path class="st8" d="M360.8,752c0-62.7,76.3-113.5,170.5-113.5S701.8,689.3,701.8,752s-76.3,113.5-170.5,113.5
					S360.8,814.7,360.8,752"/>
				<path class="st1" d="M360.8,752c0-62.7,76.3-113.5,170.5-113.5S701.8,689.3,701.8,752s-76.3,113.5-170.5,113.5
					S360.8,814.7,360.8,752 M360.8,752c0-62.7,76.3-113.5,170.5-113.5S701.8,689.3,701.8,752s-76.3,113.5-170.5,113.5
					S360.8,814.7,360.8,752"/>
				<text transform="matrix(1.3893 0 0 1.3893 449.7661 891.4755)" class="st7 st3">(from Admin Local)</text>
				<text transform="matrix(1.3893 0 0 1.3893 368.767 746.4761)" class="st6 st3">UC07-Efetuar Alterações e Correções </text>
				<text transform="matrix(1.3893 0 0 1.3893 436.7658 772.4766)" class="st6 st3">de erros nos registros</text>
				<path class="st1" d="M693.8,559.5l-5,7 M684.8,570.5l-6,7 M675.8,581.5l-6,7 M666.8,592.5l-6,7 M657.8,603.5l-6,7 M648.8,614.5
					l-6,7 M638.8,625.5l-5,7 M629.8,636.5l-2,2"/>
				<path class="st1" d="M693.8,559.5l-5,15 M693.8,559.5l-14,8"/>
				<path class="st1" d="M260.8,589.5l100,60"/>
				<path class="st1" d="M662.8,486.5l-7-2 M651.8,483.5l-7-3 M640.8,479.5l-7-2 M629.8,475.5l-7-2 M618.8,472.5l-7-3 M607.8,468.5
					l-7-3"/>
				<path class="st1" d="M662.8,486.5l-16,1 M662.8,486.5l-12-10"/>
				<path class="st1" d="M260.8,525.5l66-34"/>
				<g transform="matrix(1 0 0 -1 557 328)">
					<polygon class="st0" points="84.8,-273.5 124.8,-273.5 124.8,-273.5 					"/>
				</g>
				<text transform="matrix(1.3893 0 0 1.3893 641.7657 610.4766)" class="st2 st9">«include»</text>
				<g transform="matrix(1 0 0 -1 528 205)">
					<polygon class="st0" points="84.8,-273.5 124.8,-273.5 124.8,-273.5 					"/>
				</g>
				<text transform="matrix(1.3893 0 0 1.3893 612.7659 487.4768)" class="st2 st9">«include»</text>
			</g>
		</g>
	</g>
</g>
</svg>
