<?xml version="1.0" encoding="utf-8"?>
<!-- Generator: Adobe Illustrator 19.0.0, SVG Export Plug-In . SVG Version: 6.00 Build 0)  -->
<svg version="1.1" id="Camada_1" xmlns="http://www.w3.org/2000/svg" xmlns:xlink="http://www.w3.org/1999/xlink" x="0px" y="0px"
	 viewBox="161.4 178.2 716.1 576.7" style="enable-background:new 161.4 178.2 716.1 576.7;" xml:space="preserve">
<style type="text/css">
	.st0{fill:none;stroke:#000000;stroke-linecap:round;stroke-linejoin:round;stroke-miterlimit:3;}
	.st1{font-family:'Calibri';}
	.st2{font-size:15.1153px;}
	.st3{fill:#DFDFDF;}
	.st4{fill:#F8E2C1;}
	.st5{font-family:'Calibri-Bold';}
	.st6{font-family:'Calibri-Italic';}
	.st7{fill:#E5F2FE;}
	.st8{fill:none;stroke:#000000;stroke-linecap:round;stroke-linejoin:round;stroke-miterlimit:3;stroke-dasharray:7,4;}
	.st9{fill:#FFFFFF;}
	.st10{font-size:7.1978px;}
</style>
<g transform="matrix(1 0 0 -1 0 768)">
	<g>
		<g transform="matrix(0.75 0 0 0.75 0 768.200012)">
			<g transform="matrix(0.959509 0 0 -0.9597 0 0)">
				<g transform="matrix(953 0 0 -751 63 796)">
				</g>
				<path class="st0" d="M411.9,307c0-5,0-5,5-5h733c5,0,5,0,5,5v683c0,5,0,5-5,5h-733c-5,0-5,0-5-5V307"/>
				<text transform="matrix(1.3893 0 0 1.3893 755.8824 325.96)" class="st1 st2">SAPUZ</text>
				<path class="st3" d="M313.9,544.5c0-5.8,4.7-10.5,10.5-10.5c5.8,0,10.5,4.7,10.5,10.5s-4.7,10.5-10.5,10.5
					C318.6,555,313.9,550.3,313.9,544.5"/>
				<path class="st4" d="M311.9,542.5c0-5.8,4.7-10.5,10.5-10.5c5.8,0,10.5,4.7,10.5,10.5s-4.7,10.5-10.5,10.5
					C316.6,553,311.9,548.3,311.9,542.5"/>
				<path class="st0" d="M311.9,542.5c0-5.8,4.7-10.5,10.5-10.5c5.8,0,10.5,4.7,10.5,10.5s-4.7,10.5-10.5,10.5
					C316.6,553,311.9,548.3,311.9,542.5 M311.9,542.5c0-5.8,4.7-10.5,10.5-10.5c5.8,0,10.5,4.7,10.5,10.5s-4.7,10.5-10.5,10.5
					C316.6,553,311.9,548.3,311.9,542.5 M322.9,554v21 M307.9,559h15 M337.9,559h-15 M322.9,575l12,21"/>
				<path class="st0" d="M322.9,575l-12,21"/>
				<text transform="matrix(1.3893 0 0 1.3893 265.8824 615.9601)" class="st5 st2">AC02-Admin-</text>
				<text transform="matrix(1.3893 0 0 1.3893 266.8825 641.96)" class="st5 st2">Universitario</text>
				<text transform="matrix(1.3893 0 0 1.3893 297.8825 672.96)" class="st6 st2">(from </text>
				<text transform="matrix(1.3893 0 0 1.3893 293.8827 698.9599)" class="st6 st2">Actors)</text>
				<path class="st3" d="M471.9,384c0-33.7,41-61,91.5-61s91.5,27.3,91.5,61s-41,61-91.5,61S471.9,417.7,471.9,384"/>
				<path class="st7" d="M469.9,382c0-33.7,41-61,91.5-61s91.5,27.3,91.5,61s-41,61-91.5,61S469.9,415.7,469.9,382"/>
				<path class="st0" d="M469.9,382c0-33.7,41-61,91.5-61s91.5,27.3,91.5,61s-41,61-91.5,61S469.9,415.7,469.9,382 M469.9,382
					c0-33.7,41-61,91.5-61s91.5,27.3,91.5,61s-41,61-91.5,61S469.9,415.7,469.9,382"/>
				<text transform="matrix(1.3893 0 0 1.3893 504.882 468.9601)" class="st6 st2">(from Admin </text>
				<text transform="matrix(1.3893 0 0 1.3893 503.8819 494.9607)" class="st6 st2">Universitario)</text>
				<text transform="matrix(1.3893 0 0 1.3893 490.8822 375.9599)" class="st5 st2">UC00-Cadastrar </text>
				<text transform="matrix(1.3893 0 0 1.3893 527.8823 401.9604)" class="st5 st2">Usuario</text>
				<path class="st3" d="M795.9,650.5c0-26.8,32.7-48.5,73-48.5s73,21.7,73,48.5s-32.7,48.5-73,48.5S795.9,677.3,795.9,650.5"/>
				<path class="st7" d="M793.9,648.5c0-26.8,32.7-48.5,73-48.5s73,21.7,73,48.5s-32.7,48.5-73,48.5S793.9,675.3,793.9,648.5"/>
				<path class="st0" d="M793.9,648.5c0-26.8,32.7-48.5,73-48.5s73,21.7,73,48.5s-32.7,48.5-73,48.5S793.9,675.3,793.9,648.5
					 M793.9,648.5c0-26.8,32.7-48.5,73-48.5s73,21.7,73,48.5s-32.7,48.5-73,48.5S793.9,675.3,793.9,648.5"/>
				<text transform="matrix(1.3893 0 0 1.3893 802.8819 722.9599)" class="st6 st2">(from Systema </text>
				<text transform="matrix(1.3893 0 0 1.3893 836.8823 748.9604)" class="st6 st2">Basico)</text>
				<text transform="matrix(1.3893 0 0 1.3893 806.8824 642.9598)" class="st5 st2">UC01-Efetuar </text>
				<text transform="matrix(1.3893 0 0 1.3893 843.8818 668.9604)" class="st5 st2">Login</text>
				<path class="st3" d="M719.9,851.5c0-32.9,40.1-59.5,89.5-59.5s89.5,26.6,89.5,59.5S858.8,911,809.4,911S719.9,884.4,719.9,851.5
					"/>
				<path class="st7" d="M717.9,849.5c0-32.9,40.1-59.5,89.5-59.5s89.5,26.6,89.5,59.5S856.8,909,807.4,909S717.9,882.4,717.9,849.5
					"/>
				<path class="st0" d="M717.9,849.5c0-32.9,40.1-59.5,89.5-59.5s89.5,26.6,89.5,59.5S856.8,909,807.4,909S717.9,882.4,717.9,849.5
					 M717.9,849.5c0-32.9,40.1-59.5,89.5-59.5s89.5,26.6,89.5,59.5S856.8,909,807.4,909S717.9,882.4,717.9,849.5"/>
				<text transform="matrix(1.3893 0 0 1.3893 750.8818 934.9604)" class="st6 st2">(from Admin </text>
				<text transform="matrix(1.3893 0 0 1.3893 749.8817 960.9596)" class="st6 st2">Universitario)</text>
				<text transform="matrix(1.3893 0 0 1.3893 757.8828 843.9599)" class="st5 st2">UC08-Criar </text>
				<text transform="matrix(1.3893 0 0 1.3893 758.8815 869.9604)" class="st5 st2">Delagações</text>
				<path class="st3" d="M421.9,827.5c0-34,41.4-61.5,92.5-61.5s92.5,27.5,92.5,61.5S565.5,889,514.4,889S421.9,861.5,421.9,827.5"
					/>
				<path class="st7" d="M419.9,825.5c0-34,41.4-61.5,92.5-61.5s92.5,27.5,92.5,61.5S563.5,887,512.4,887S419.9,859.5,419.9,825.5"
					/>
				<path class="st0" d="M419.9,825.5c0-34,41.4-61.5,92.5-61.5s92.5,27.5,92.5,61.5S563.5,887,512.4,887S419.9,859.5,419.9,825.5
					 M419.9,825.5c0-34,41.4-61.5,92.5-61.5s92.5,27.5,92.5,61.5S563.5,887,512.4,887S419.9,859.5,419.9,825.5"/>
				<text transform="matrix(1.3893 0 0 1.3893 455.883 912.9596)" class="st6 st2">(from Admin </text>
				<text transform="matrix(1.3893 0 0 1.3893 454.8828 938.9601)" class="st6 st2">Universitario)</text>
				<text transform="matrix(1.3893 0 0 1.3893 445.8831 819.9592)" class="st5 st2">UC09-Remover </text>
				<text transform="matrix(1.3893 0 0 1.3893 460.8823 845.9598)" class="st5 st2">U</text>
				<text transform="matrix(1.3893 0 0 1.3893 474.8828 845.9598)" class="st5 st2">t</text>
				<text transform="matrix(1.3893 0 0 1.3893 482.1632 845.9598)" class="st5 st2">i</text>
				<text transform="matrix(1.3893 0 0 1.3893 486.883 845.9598)" class="st5 st2">l</text>
				<text transform="matrix(1.3893 0 0 1.3893 491.8823 845.9598)" class="st5 st2">i</text>
				<text transform="matrix(1.3893 0 0 1.3893 496.8829 845.9598)" class="st5 st2">z</text>
				<text transform="matrix(1.3893 0 0 1.3893 505.8821 845.9598)" class="st5 st2">a</text>
				<text transform="matrix(1.3893 0 0 1.3893 515.8821 845.9598)" class="st5 st2">d</text>
				<text transform="matrix(1.3893 0 0 1.3893 527.8823 845.9598)" class="st5 st2">o</text>
				<text transform="matrix(1.3893 0 0 1.3893 538.8824 845.9598)" class="st5 st2">r</text>
				<text transform="matrix(1.3893 0 0 1.3893 545.882 845.9598)" class="st5 st2">e</text>
				<text transform="matrix(1.3893 0 0 1.3893 556.882 845.9598)" class="st5 st2">s</text>
				<path class="st3" d="M715.9,408.5c0-34,41.4-61.5,92.5-61.5s92.5,27.5,92.5,61.5S859.5,470,808.4,470S715.9,442.5,715.9,408.5"
					/>
				<path class="st7" d="M713.9,406.5c0-34,41.4-61.5,92.5-61.5s92.5,27.5,92.5,61.5S857.5,468,806.4,468S713.9,440.5,713.9,406.5"
					/>
				<path class="st0" d="M713.9,406.5c0-34,41.4-61.5,92.5-61.5s92.5,27.5,92.5,61.5S857.5,468,806.4,468S713.9,440.5,713.9,406.5
					 M713.9,406.5c0-34,41.4-61.5,92.5-61.5s92.5,27.5,92.5,61.5S857.5,468,806.4,468S713.9,440.5,713.9,406.5"/>
				<text transform="matrix(1.3893 0 0 1.3893 749.8817 493.9595)" class="st6 st2">(from Admin </text>
				<text transform="matrix(1.3893 0 0 1.3893 748.8815 519.96)" class="st6 st2">Universitario)</text>
				<text transform="matrix(1.3893 0 0 1.3893 738.8816 387.9602)" class="st5 st2">UC10-Atualizar </text>
				<text transform="matrix(1.3893 0 0 1.3893 758.8815 413.9601)" class="st5 st2">dados dos </text>
				<text transform="matrix(1.3893 0 0 1.3893 755.8824 439.9599)" class="st5 st2">u</text>
				<text transform="matrix(1.3893 0 0 1.3893 766.8826 439.9599)" class="st5 st2">t</text>
				<text transform="matrix(1.3893 0 0 1.3893 774.1617 439.9599)" class="st5 st2">i</text>
				<text transform="matrix(1.3893 0 0 1.3893 779.8816 439.9599)" class="st5 st2">l</text>
				<text transform="matrix(1.3893 0 0 1.3893 784.8822 439.9599)" class="st5 st2">i</text>
				<text transform="matrix(1.3893 0 0 1.3893 789.8815 439.9599)" class="st5 st2">z</text>
				<text transform="matrix(1.3893 0 0 1.3893 798.8813 439.9599)" class="st5 st2">a</text>
				<text transform="matrix(1.3893 0 0 1.3893 808.8826 439.9599)" class="st5 st2">d</text>
				<text transform="matrix(1.3893 0 0 1.3893 820.8815 439.9599)" class="st5 st2">o</text>
				<text transform="matrix(1.3893 0 0 1.3893 831.8817 439.9599)" class="st5 st2">r</text>
				<text transform="matrix(1.3893 0 0 1.3893 838.8812 439.9599)" class="st5 st2">e</text>
				<text transform="matrix(1.3893 0 0 1.3893 849.8813 439.9599)" class="st5 st2">s</text>
				<path class="st3" d="M985.9,494.5c0-26.8,32.7-48.5,73-48.5c40.3,0,73,21.7,73,48.5c0,26.8-32.7,48.5-73,48.5
					C1018.6,543,985.9,521.3,985.9,494.5"/>
				<path class="st7" d="M983.9,492.5c0-26.8,32.7-48.5,73-48.5c40.3,0,73,21.7,73,48.5c0,26.8-32.7,48.5-73,48.5
					C1016.6,541,983.9,519.3,983.9,492.5"/>
				<path class="st0" d="M983.9,492.5c0-26.8,32.7-48.5,73-48.5c40.3,0,73,21.7,73,48.5c0,26.8-32.7,48.5-73,48.5
					C1016.6,541,983.9,519.3,983.9,492.5 M983.9,492.5c0-26.8,32.7-48.5,73-48.5c40.3,0,73,21.7,73,48.5c0,26.8-32.7,48.5-73,48.5
					C1016.6,541,983.9,519.3,983.9,492.5"/>
				<text transform="matrix(1.3893 0 0 1.3893 1000.8822 566.9601)" class="st6 st2">(from Admin </text>
				<text transform="matrix(1.3893 0 0 1.3893 999.8821 592.96)" class="st6 st2">Universitario)</text>
				<text transform="matrix(1.3893 0 0 1.3893 1002.8824 486.9601)" class="st5 st2">UC11-Editar </text>
				<text transform="matrix(1.3893 0 0 1.3893 1007.8817 512.9599)" class="st5 st2">Delegações</text>
				<path class="st3" d="M527.9,616.5c0-26.8,32.7-48.5,73-48.5s73,21.7,73,48.5s-32.7,48.5-73,48.5S527.9,643.3,527.9,616.5"/>
				<path class="st7" d="M525.9,614.5c0-26.8,32.7-48.5,73-48.5s73,21.7,73,48.5s-32.7,48.5-73,48.5S525.9,641.3,525.9,614.5"/>
				<path class="st0" d="M525.9,614.5c0-26.8,32.7-48.5,73-48.5s73,21.7,73,48.5s-32.7,48.5-73,48.5S525.9,641.3,525.9,614.5
					 M525.9,614.5c0-26.8,32.7-48.5,73-48.5s73,21.7,73,48.5s-32.7,48.5-73,48.5S525.9,641.3,525.9,614.5"/>
				<text transform="matrix(1.3893 0 0 1.3893 542.8815 688.9601)" class="st6 st2">(from Admin </text>
				<text transform="matrix(1.3893 0 0 1.3893 541.8828 714.9599)" class="st6 st2">Universitario)</text>
				<text transform="matrix(1.3893 0 0 1.3893 541.8828 608.96)" class="st5 st2">UC12-Excluir </text>
				<text transform="matrix(1.3893 0 0 1.3893 549.8825 634.9598)" class="st5 st2">Delegações</text>
				<path class="st3" d="M997.9,839.5c0-26.8,32.7-48.5,73-48.5c40.3,0,73,21.7,73,48.5s-32.7,48.5-73,48.5S997.9,866.3,997.9,839.5
					"/>
				<path class="st7" d="M995.9,837.5c0-26.8,32.7-48.5,73-48.5c40.3,0,73,21.7,73,48.5s-32.7,48.5-73,48.5S995.9,864.3,995.9,837.5
					"/>
				<path class="st0" d="M995.9,837.5c0-26.8,32.7-48.5,73-48.5c40.3,0,73,21.7,73,48.5s-32.7,48.5-73,48.5S995.9,864.3,995.9,837.5
					 M995.9,837.5c0-26.8,32.7-48.5,73-48.5c40.3,0,73,21.7,73,48.5s-32.7,48.5-73,48.5S995.9,864.3,995.9,837.5"/>
				<text transform="matrix(1.3893 0 0 1.3893 1012.8824 911.9597)" class="st6 st2">(from Admin </text>
				<text transform="matrix(1.3893 0 0 1.3893 1011.8823 937.9602)" class="st6 st2">Universitario)</text>
				<text transform="matrix(1.3893 0 0 1.3893 1011.8823 831.9596)" class="st5 st2">UC27-Buscar </text>
				<text transform="matrix(1.3893 0 0 1.3893 1019.882 857.9601)" class="st5 st2">Delegações</text>
				<path class="st0" d="M853.9,600l-1-7 M851.9,589l-2-7 M848.9,578l-2-7 M845.9,567l-1-7 M843.9,556l-2-7 M840.9,545l-2-7
					 M837.9,534l-1-7 M835.9,523l-2-7 M832.9,512l-2-7 M829.9,501l-1-7 M827.9,490l-2-7 M824.9,479l-2-7"/>
				<path class="st0" d="M853.9,600l-9-13 M853.9,600l2-16"/>
				<path class="st0" d="M381.9,586l446.5-63.2c0.4,2.7,2.7,4.7,5.5,4.7c3.5,0.5,6-2,6-5c-0.5-0.7-0.5-1-0.5-1.2 M838.9,521l145-18"
					/>
				<path class="st0" d="M379.9,663l82,101"/>
				<path class="st0" d="M381.9,624l336,178"/>
				<path class="st0" d="M381.9,598l144,11"/>
				<path class="st0" d="M925.9,600l7-5 M936.9,592l7-6 M947.9,583l7-6 M958.9,574l7-6 M969.9,565l7-6 M980.9,556l7-6 M991.9,547
					l5-5"/>
				<path class="st0" d="M925.9,600l8-14 M925.9,600l15-5"/>
				<path class="st0" d="M793.9,639h-7 M782.9,638l-7-1 M771.9,637l-7-1 M760.9,635h-7 M749.9,634l-7-1 M738.9,633l-7-1 M727.9,631
					l-7-1 M716.9,630l-7-1 M705.9,629l-7-1 M694.9,627l-7-1 M683.9,626l-7-1"/>
				<path class="st0" d="M793.9,639l-16,4 M793.9,639l-14-8"/>
				<path class="st0" d="M381.9,542l110-98"/>
				<path class="st0" d="M381.9,571l332-128"/>
				<path class="st0" d="M793.9,685l-7,3 M782.9,690l-7,4 M771.9,696l-7,3 M760.9,701l-7,4 M749.9,707l-7,3 M738.9,712l-7,4
					 M727.9,718l-7,3 M716.9,723l-7,4 M705.9,729l-7,3 M694.9,734l-7,4 M683.9,740l-7,3 M672.9,745l-7,4 M661.9,751l-7,3 M650.9,756
					l-7,4 M639.9,762l-7,3 M628.9,767l-7,4 M617.9,773l-7,3 M606.9,778l-1,1"/>
				<path class="st0" d="M793.9,685l-11,12 M793.9,685l-16,1"/>
				<path class="st0" d="M631.9,444l7,6 M642.9,453l7,6 M653.9,463l7,6 M664.9,472l7,6 M675.9,482l7,6 M686.9,491l7,7 M697.9,501
					l7,6 M708.9,511l7,6 M719.9,520l7,6 M730.9,530l7,6 M741.9,539l7,6 M752.9,549l7,6 M763.9,559l7,6 M774.9,568l7,6 M785.9,578
					l7,6 M796.9,587l7,6 M807.9,597l3,3"/>
				<path class="st0" d="M631.9,444l15,5 M631.9,444l7,14"/>
				<path class="st0" d="M995.9,803l-7-3 M984.9,798l-7-3 M973.9,793l-7-3 M962.9,788l-7-3 M951.9,783l-7-4 M940.9,777l-7-3
					 M929.9,772l-7-3 M918.9,767l-7-3 M907.9,762l-7-4 M896.9,757l-7-4 M885.9,751l-7-3 M874.9,746l-7-3 M863.9,741l-7-3 M852.9,736
					l-7-4 M841.9,731l-7-4 M830.9,725l-7-3 M819.9,720l-7-3 M808.9,715l-7-3 M797.9,710l-7-4 M786.9,704l-7-3 M775.9,699l-7-3
					 M764.9,694l-7-3 M753.9,689l-7-3 M742.9,684l-7-4 M731.9,678l-7-3 M720.9,673l-7-3 M709.9,668l-7-3 M698.9,663l-7-4 M687.9,658
					l-7-4 M676.9,652l-4-2"/>
				<path class="st0" d="M995.9,803l-16-1 M995.9,803l-11-12"/>
				<path class="st8" d="M1066.9,789v-18"/>
				<path class="st0" d="M1066.9,767l-1-7 M1065.9,756v-7 M1065.9,745v-7 M1064.9,734v-7 M1064.9,723v-7 M1064.9,712l-1-7
					 M1063.9,701v-7 M1063.9,690v-7 M1062.9,679v-7 M1062.9,668v-7 M1062.9,657l-1-7 M1061.9,646v-7 M1061.9,635v-7 M1060.9,624v-7
					 M1060.9,613v-7 M1060.9,602l-1-7 M1059.9,591v-7 M1059.9,580v-7 M1058.9,569v-7 M1058.9,558v-7 M1058.9,547l-1-5"/>
				<path class="st0" d="M1066.9,789l-7-15 M1066.9,789l5-15"/>
				<path class="st0" d="M381.9,612l329.8,107.3c-0.2,0.6-0.3,1.1-0.3,1.7c0.5,3.5,3,6,6,6c1.9-0.5,4-2,4.7-4.3 M721.9,722l274,92"
					/>
				<path class="st0" d="M851.9,698l-2,7 M848.9,709l-2,7 M845.9,720l-2,7 M842.9,731l-2,7 M839.9,742l-2,7 M835.9,753l-2,7
					 M832.9,764l-2,7 M829.9,775l-2,7 M826.9,786l-2,4"/>
				<path class="st0" d="M851.9,698l2,16 M851.9,698l-10,13"/>
				<path class="st0" d="M918.9,698l7,6 M929.9,708l7,6 M940.9,718l7,7 M951.9,728l7,7 M962.9,739l7,6 M973.9,749l7,7 M984.9,759
					l7,7 M995.9,770l7,6 M1006.9,780l7,7"/>
				<path class="st0" d="M918.9,698l15,6 M918.9,698l7,15"/>
				<path class="st8" d="M995.9,841h-18"/>
				<path class="st0" d="M973.9,841l-7,1 M962.9,842h-7 M951.9,842l-7,1 M940.9,843h-7 M929.9,843h-7 M918.9,844h-7 M907.9,844h-7"
					/>
				<path class="st0" d="M995.9,841l-15,7 M995.9,841l-15-5"/>
				<g transform="matrix(1 0 0 -1 616 316)">
					<polygon class="st9" points="202.9,-221 242.9,-221 242.9,-221 					"/>
				</g>
				<text transform="matrix(1.3893 0 0 1.3893 818.8813 545.9605)" class="st1 st10">«include»</text>
				<g transform="matrix(1 0 0 -1 511 413)">
					<polygon class="st9" points="202.9,-221 242.9,-221 242.9,-221 					"/>
				</g>
				<text transform="matrix(1.3893 0 0 1.3893 713.8824 642.9598)" class="st1 st10">«include»</text>
				<g transform="matrix(1 0 0 -1 840 447)">
					<polygon class="st9" points="202.9,-221 242.9,-221 242.9,-221 					"/>
				</g>
				<text transform="matrix(1.3893 0 0 1.3893 1042.8822 676.9603)" class="st1 st10">«include»</text>
				<g transform="matrix(1 0 0 -1 739 353)">
					<polygon class="st9" points="202.9,-221 242.9,-221 242.9,-221 					"/>
				</g>
				<text transform="matrix(1.3893 0 0 1.3893 941.8826 582.9601)" class="st1 st10">«include»</text>
				<g transform="matrix(1 0 0 -1 612 508)">
					<polygon class="st9" points="202.9,-221 242.9,-221 242.9,-221 					"/>
				</g>
				<text transform="matrix(1.3893 0 0 1.3893 814.8821 737.96)" class="st1 st10">«include»</text>
				<g transform="matrix(1 0 0 -1 725 625)">
					<polygon class="st9" points="202.9,-221 242.9,-221 242.9,-221 					"/>
				</g>
				<text transform="matrix(1.3893 0 0 1.3893 927.8821 854.9604)" class="st1 st10">«include»</text>
				<g transform="matrix(1 0 0 -1 499 304)">
					<polygon class="st9" points="202.9,-221 242.9,-221 242.9,-221 					"/>
				</g>
				<text transform="matrix(1.3893 0 0 1.3893 701.8821 533.9595)" class="st1 st10">«include»</text>
				<g transform="matrix(1 0 0 -1 745 525)">
					<polygon class="st9" points="202.9,-221 242.9,-221 242.9,-221 					"/>
				</g>
				<text transform="matrix(1.3893 0 0 1.3893 947.882 754.96)" class="st1 st10">«include»</text>
				<g transform="matrix(1 0 0 -1 478 514)">
					<polygon class="st9" points="202.9,-221 242.9,-221 242.9,-221 					"/>
				</g>
				<text transform="matrix(1.3893 0 0 1.3893 680.8821 743.9595)" class="st1 st10">«include»</text>
				<g transform="matrix(1 0 0 -1 616 526)">
					<polygon class="st9" points="202.9,-221 242.9,-221 242.9,-221 					"/>
				</g>
				<text transform="matrix(1.3893 0 0 1.3893 818.8813 755.9598)" class="st1 st10">«include»</text>
			</g>
		</g>
	</g>
</g>
</svg>
