<?xml version="1.0" encoding="utf-8"?>
<!-- Generator: Adobe Illustrator 19.0.0, SVG Export Plug-In . SVG Version: 6.00 Build 0)  -->
<svg version="1.1" id="Camada_1" xmlns="http://www.w3.org/2000/svg" xmlns:xlink="http://www.w3.org/1999/xlink" x="0px" y="0px"
	 viewBox="282.7 83.8 758.2 731" style="enable-background:new 282.7 83.8 758.2 731;" xml:space="preserve">
<style type="text/css">
	.st0{fill:#FFFFFF;}
	.st1{fill:none;stroke:#000000;stroke-linecap:round;stroke-linejoin:round;stroke-miterlimit:3;}
	.st2{font-family:'Calibri';}
	.st3{font-size:15.1153px;}
	.st4{fill:#DFDFDF;}
	.st5{fill:#F8E2C1;}
	.st6{font-family:'Calibri-Bold';}
	.st7{font-family:'Calibri-Italic';}
	.st8{fill:#E5F2FE;}
	.st9{font-size:7.1978px;}
</style>
<rect x="282.7" y="83.8" class="st0" width="758.2" height="731"/>
<g transform="matrix(1 0 0 -1 0 772)">
	<g>
		<g transform="matrix(0.75 0 0 0.75 0 772.549988)">
			<g transform="matrix(0.959509 0 0 -0.9597 0 0)">
				<g transform="matrix(1029 0 0 -986 56 1013)">
				</g>
				<path class="st1" d="M554.7,162.9c0-5,0-5,5-5h833c5,0,5,0,5,5v920c0,5,0,5-5,5h-833c-5,0-5,0-5-5L554.7,162.9"/>
				<text transform="matrix(1.3893 0 0 1.3893 892.6862 181.9543)" class="st2 st3">SAPUZ-RELATORIOS</text>
				<path class="st4" d="M460.7,420.4c0-5.8,4.7-10.5,10.5-10.5s10.5,4.7,10.5,10.5s-4.7,10.5-10.5,10.5
					C465.4,430.9,460.7,426.2,460.7,420.4"/>
				<path class="st5" d="M458.7,418.4c0-5.8,4.7-10.5,10.5-10.5s10.5,4.7,10.5,10.5s-4.7,10.5-10.5,10.5
					C463.4,428.9,458.7,424.2,458.7,418.4"/>
				<path class="st1" d="M458.7,418.4c0-5.8,4.7-10.5,10.5-10.5s10.5,4.7,10.5,10.5s-4.7,10.5-10.5,10.5
					C463.4,428.9,458.7,424.2,458.7,418.4 M458.7,418.4c0-5.8,4.7-10.5,10.5-10.5s10.5,4.7,10.5,10.5s-4.7,10.5-10.5,10.5
					C463.4,428.9,458.7,424.2,458.7,418.4 M469.7,429.9v21 M454.7,434.9h15 M484.7,434.9h-15 M469.7,450.9l12,21"/>
				<path class="st1" d="M469.7,450.9l-12,21"/>
				<text transform="matrix(1.3893 0 0 1.3893 444.6861 491.9547)" class="st6 st3">AC00-</text>
				<text transform="matrix(1.3893 0 0 1.3893 430.687 517.9546)" class="st6 st3">USUARIO</text>
				<text transform="matrix(1.3893 0 0 1.3893 444.6861 548.9547)" class="st7 st3">(from </text>
				<text transform="matrix(1.3893 0 0 1.3893 440.687 574.9545)" class="st7 st3">Actors)</text>
				<path class="st4" d="M697.7,491.4c0-26.8,32.7-48.5,73-48.5s73,21.7,73,48.5s-32.7,48.5-73,48.5S697.7,518.2,697.7,491.4"/>
				<path class="st8" d="M695.7,489.4c0-26.8,32.7-48.5,73-48.5s73,21.7,73,48.5s-32.7,48.5-73,48.5S695.7,516.2,695.7,489.4"/>
				<path class="st1" d="M695.7,489.4c0-26.8,32.7-48.5,73-48.5s73,21.7,73,48.5s-32.7,48.5-73,48.5S695.7,516.2,695.7,489.4
					 M695.7,489.4c0-26.8,32.7-48.5,73-48.5s73,21.7,73,48.5s-32.7,48.5-73,48.5S695.7,516.2,695.7,489.4"/>
				<text transform="matrix(1.3893 0 0 1.3893 704.6858 563.9548)" class="st7 st3">(from Systema </text>
				<text transform="matrix(1.3893 0 0 1.3893 738.6862 589.9547)" class="st7 st3">Basico)</text>
				<text transform="matrix(1.3893 0 0 1.3893 708.6863 483.9547)" class="st6 st3">UC01-Efetuar </text>
				<text transform="matrix(1.3893 0 0 1.3893 745.6858 509.9546)" class="st6 st3">Login</text>
				<path class="st4" d="M1179.7,758.4c0-34,41.4-61.5,92.5-61.5s92.5,27.5,92.5,61.5s-41.4,61.5-92.5,61.5
					S1179.7,792.4,1179.7,758.4"/>
				<path class="st8" d="M1177.7,756.4c0-34,41.4-61.5,92.5-61.5s92.5,27.5,92.5,61.5s-41.4,61.5-92.5,61.5
					S1177.7,790.4,1177.7,756.4"/>
				<path class="st1" d="M1177.7,756.4c0-34,41.4-61.5,92.5-61.5s92.5,27.5,92.5,61.5s-41.4,61.5-92.5,61.5
					S1177.7,790.4,1177.7,756.4 M1177.7,756.4c0-34,41.4-61.5,92.5-61.5s92.5,27.5,92.5,61.5s-41.4,61.5-92.5,61.5
					S1177.7,790.4,1177.7,756.4"/>
				<text transform="matrix(1.3893 0 0 1.3893 1192.6863 843.9543)" class="st7 st3">(from Systema de </text>
				<text transform="matrix(1.3893 0 0 1.3893 1224.6864 869.9549)" class="st7 st3">Relatorios)</text>
				<text transform="matrix(1.3893 0 0 1.3893 1215.6852 737.9537)" class="st6 st3">U</text>
				<text transform="matrix(1.3893 0 0 1.3893 1229.6858 737.9537)" class="st6 st3">C</text>
				<text transform="matrix(1.3893 0 0 1.3893 1240.6858 737.9537)" class="st6 st3">1</text>
				<text transform="matrix(1.3893 0 0 1.3893 1250.6858 737.9537)" class="st6 st3">3</text>
				<text transform="matrix(1.3893 0 0 1.3893 1261.6858 737.9537)" class="st6 st3">-</text>
				<text transform="matrix(1.3893 0 0 1.3893 1267.6866 737.9537)" class="st6 st3">E</text>
				<text transform="matrix(1.3893 0 0 1.3893 1278.6868 737.9537)" class="st6 st3">m</text>
				<text transform="matrix(1.3893 0 0 1.3893 1294.6862 737.9537)" class="st6 st3">i</text>
				<text transform="matrix(1.3893 0 0 1.3893 1299.6854 737.9537)" class="st6 st3">t</text>
				<text transform="matrix(1.3893 0 0 1.3893 1306.9659 737.9537)" class="st6 st3">i</text>
				<text transform="matrix(1.3893 0 0 1.3893 1312.6858 737.9537)" class="st6 st3">r</text>
				<text transform="matrix(1.3893 0 0 1.3893 1319.6854 737.9537)" class="st6 st3"> </text>
				<text transform="matrix(1.3893 0 0 1.3893 1188.6858 763.9543)" class="st6 st3">relatorios de bens </text>
				<text transform="matrix(1.3893 0 0 1.3893 1188.6858 789.9548)" class="st6 st3">para inventariacão</text>
				<path class="st4" d="M623.7,254.4c0-34,41.4-61.5,92.5-61.5s92.5,27.5,92.5,61.5s-41.4,61.5-92.5,61.5S623.7,288.4,623.7,254.4"
					/>
				<path class="st8" d="M621.7,252.4c0-34,41.4-61.5,92.5-61.5s92.5,27.5,92.5,61.5s-41.4,61.5-92.5,61.5S621.7,286.4,621.7,252.4"
					/>
				<path class="st1" d="M621.7,252.4c0-34,41.4-61.5,92.5-61.5s92.5,27.5,92.5,61.5s-41.4,61.5-92.5,61.5S621.7,286.4,621.7,252.4
					 M621.7,252.4c0-34,41.4-61.5,92.5-61.5s92.5,27.5,92.5,61.5s-41.4,61.5-92.5,61.5S621.7,286.4,621.7,252.4"/>
				<text transform="matrix(1.3893 0 0 1.3893 636.6863 339.9546)" class="st7 st3">(from Systema de </text>
				<text transform="matrix(1.3893 0 0 1.3893 668.6865 365.9551)" class="st7 st3">Relatorios)</text>
				<text transform="matrix(1.3893 0 0 1.3893 659.6866 233.954)" class="st6 st3">U</text>
				<text transform="matrix(1.3893 0 0 1.3893 673.6858 233.954)" class="st6 st3">C</text>
				<text transform="matrix(1.3893 0 0 1.3893 684.6859 233.954)" class="st6 st3">1</text>
				<text transform="matrix(1.3893 0 0 1.3893 694.6858 233.954)" class="st6 st3">4</text>
				<text transform="matrix(1.3893 0 0 1.3893 705.6859 233.954)" class="st6 st3">-</text>
				<text transform="matrix(1.3893 0 0 1.3893 711.6866 233.954)" class="st6 st3">E</text>
				<text transform="matrix(1.3893 0 0 1.3893 722.6854 233.954)" class="st6 st3">m</text>
				<text transform="matrix(1.3893 0 0 1.3893 738.6862 233.954)" class="st6 st3">i</text>
				<text transform="matrix(1.3893 0 0 1.3893 743.6855 233.954)" class="st6 st3">t</text>
				<text transform="matrix(1.3893 0 0 1.3893 750.9659 233.954)" class="st6 st3">i</text>
				<text transform="matrix(1.3893 0 0 1.3893 756.6859 233.954)" class="st6 st3">r</text>
				<text transform="matrix(1.3893 0 0 1.3893 763.6868 233.954)" class="st6 st3"> </text>
				<text transform="matrix(1.3893 0 0 1.3893 621.6857 259.9545)" class="st6 st3">relações de bens por </text>
				<text transform="matrix(1.3893 0 0 1.3893 650.6854 285.9544)" class="st6 st3">Departamento</text>
				<path class="st4" d="M1101.7,278.4c0-41.1,50.1-74.5,112-74.5s112,33.3,112,74.5s-50.1,74.5-112,74.5S1101.7,319.6,1101.7,278.4
					"/>
				<path class="st8" d="M1099.7,276.4c0-41.1,50.1-74.5,112-74.5s112,33.3,112,74.5s-50.1,74.5-112,74.5S1099.7,317.6,1099.7,276.4
					"/>
				<path class="st1" d="M1099.7,276.4c0-41.1,50.1-74.5,112-74.5s112,33.3,112,74.5s-50.1,74.5-112,74.5S1099.7,317.6,1099.7,276.4
					 M1099.7,276.4c0-41.1,50.1-74.5,112-74.5s112,33.3,112,74.5s-50.1,74.5-112,74.5S1099.7,317.6,1099.7,276.4"/>
				<text transform="matrix(1.3893 0 0 1.3893 1134.6868 376.9542)" class="st7 st3">(from Systema de </text>
				<text transform="matrix(1.3893 0 0 1.3893 1165.6854 402.9547)" class="st7 st3">Relatorios)</text>
				<text transform="matrix(1.3893 0 0 1.3893 1104.6855 270.9543)" class="st6 st3">U</text>
				<text transform="matrix(1.3893 0 0 1.3893 1118.686 270.9543)" class="st6 st3">C</text>
				<text transform="matrix(1.3893 0 0 1.3893 1129.6862 270.9543)" class="st6 st3">1</text>
				<text transform="matrix(1.3893 0 0 1.3893 1139.6862 270.9543)" class="st6 st3">5</text>
				<text transform="matrix(1.3893 0 0 1.3893 1150.6862 270.9543)" class="st6 st3">-</text>
				<text transform="matrix(1.3893 0 0 1.3893 1156.6855 270.9543)" class="st6 st3">E</text>
				<text transform="matrix(1.3893 0 0 1.3893 1167.6857 270.9543)" class="st6 st3">m</text>
				<text transform="matrix(1.3893 0 0 1.3893 1183.6865 270.9543)" class="st6 st3">i</text>
				<text transform="matrix(1.3893 0 0 1.3893 1188.6858 270.9543)" class="st6 st3">t</text>
				<text transform="matrix(1.3893 0 0 1.3893 1195.9662 270.9543)" class="st6 st3">i</text>
				<text transform="matrix(1.3893 0 0 1.3893 1201.6862 270.9543)" class="st6 st3">r</text>
				<text transform="matrix(1.3893 0 0 1.3893 1208.6857 270.9543)" class="st6 st3"> </text>
				<text transform="matrix(1.3893 0 0 1.3893 1213.6863 270.9543)" class="st6 st3">r</text>
				<text transform="matrix(1.3893 0 0 1.3893 1221.686 270.9543)" class="st6 st3">e</text>
				<text transform="matrix(1.3893 0 0 1.3893 1231.686 270.9543)" class="st6 st3">l</text>
				<text transform="matrix(1.3893 0 0 1.3893 1236.6866 270.9543)" class="st6 st3">a</text>
				<text transform="matrix(1.3893 0 0 1.3893 1247.6868 270.9543)" class="st6 st3">ç</text>
				<text transform="matrix(1.3893 0 0 1.3893 1255.6865 270.9543)" class="st6 st3">õ</text>
				<text transform="matrix(1.3893 0 0 1.3893 1267.6866 270.9543)" class="st6 st3">e</text>
				<text transform="matrix(1.3893 0 0 1.3893 1277.6853 270.9543)" class="st6 st3">s</text>
				<text transform="matrix(1.3893 0 0 1.3893 1285.6863 270.9543)" class="st6 st3"> </text>
				<text transform="matrix(1.3893 0 0 1.3893 1291.6858 270.9543)" class="st6 st3">d</text>
				<text transform="matrix(1.3893 0 0 1.3893 1302.6858 270.9543)" class="st6 st3">e</text>
				<text transform="matrix(1.3893 0 0 1.3893 1312.6858 270.9543)" class="st6 st3"> </text>
				<text transform="matrix(1.3893 0 0 1.3893 1121.6864 296.9549)" class="st6 st3">b</text>
				<text transform="matrix(1.3893 0 0 1.3893 1132.6865 296.9549)" class="st6 st3">e</text>
				<text transform="matrix(1.3893 0 0 1.3893 1143.6865 296.9549)" class="st6 st3">n</text>
				<text transform="matrix(1.3893 0 0 1.3893 1154.6866 296.9549)" class="st6 st3">s</text>
				<text transform="matrix(1.3893 0 0 1.3893 1163.6865 296.9549)" class="st6 st3"> </text>
				<text transform="matrix(1.3893 0 0 1.3893 1168.6858 296.9549)" class="st6 st3">p</text>
				<text transform="matrix(1.3893 0 0 1.3893 1179.6859 296.9549)" class="st6 st3">o</text>
				<text transform="matrix(1.3893 0 0 1.3893 1191.6862 296.9549)" class="st6 st3">r</text>
				<text transform="matrix(1.3893 0 0 1.3893 1198.6858 296.9549)" class="st6 st3"> </text>
				<text transform="matrix(1.3893 0 0 1.3893 1203.6864 296.9549)" class="st6 st3">r</text>
				<text transform="matrix(1.3893 0 0 1.3893 1211.6874 296.9549)" class="st6 st3">e</text>
				<text transform="matrix(1.3893 0 0 1.3893 1221.686 296.9549)" class="st6 st3">p</text>
				<text transform="matrix(1.3893 0 0 1.3893 1233.6863 296.9549)" class="st6 st3">a</text>
				<text transform="matrix(1.3893 0 0 1.3893 1243.6862 296.9549)" class="st6 st3">r</text>
				<text transform="matrix(1.3893 0 0 1.3893 1250.6858 296.9549)" class="st6 st3">t</text>
				<text transform="matrix(1.3893 0 0 1.3893 1257.9663 296.9549)" class="st6 st3">i</text>
				<text transform="matrix(1.3893 0 0 1.3893 1263.6862 296.9549)" class="st6 st3">c</text>
				<text transform="matrix(1.3893 0 0 1.3893 1271.6858 296.9549)" class="st6 st3">o</text>
				<text transform="matrix(1.3893 0 0 1.3893 1283.686 296.9549)" class="st6 st3">e</text>
				<text transform="matrix(1.3893 0 0 1.3893 1293.686 296.9549)" class="st6 st3">s</text>
				<path class="st4" d="M580.7,846.4c0-34,41.4-61.5,92.5-61.5s92.5,27.5,92.5,61.5s-41.4,61.5-92.5,61.5S580.7,880.4,580.7,846.4"
					/>
				<path class="st8" d="M578.7,844.4c0-34,41.4-61.5,92.5-61.5s92.5,27.5,92.5,61.5s-41.4,61.5-92.5,61.5S578.7,878.4,578.7,844.4"
					/>
				<path class="st1" d="M578.7,844.4c0-34,41.4-61.5,92.5-61.5s92.5,27.5,92.5,61.5s-41.4,61.5-92.5,61.5S578.7,878.4,578.7,844.4
					 M578.7,844.4c0-34,41.4-61.5,92.5-61.5s92.5,27.5,92.5,61.5s-41.4,61.5-92.5,61.5S578.7,878.4,578.7,844.4"/>
				<text transform="matrix(1.3893 0 0 1.3893 593.686 931.9551)" class="st7 st3">(from Systema de </text>
				<text transform="matrix(1.3893 0 0 1.3893 625.6862 957.9543)" class="st7 st3">Relatorios)</text>
				<text transform="matrix(1.3893 0 0 1.3893 616.6863 825.9545)" class="st6 st3">U</text>
				<text transform="matrix(1.3893 0 0 1.3893 630.6855 825.9545)" class="st6 st3">C</text>
				<text transform="matrix(1.3893 0 0 1.3893 641.6856 825.9545)" class="st6 st3">1</text>
				<text transform="matrix(1.3893 0 0 1.3893 651.6856 825.9545)" class="st6 st3">6</text>
				<text transform="matrix(1.3893 0 0 1.3893 662.6857 825.9545)" class="st6 st3">-</text>
				<text transform="matrix(1.3893 0 0 1.3893 668.6865 825.9545)" class="st6 st3">E</text>
				<text transform="matrix(1.3893 0 0 1.3893 679.6865 825.9545)" class="st6 st3">m</text>
				<text transform="matrix(1.3893 0 0 1.3893 695.686 825.9545)" class="st6 st3">i</text>
				<text transform="matrix(1.3893 0 0 1.3893 700.6866 825.9545)" class="st6 st3">t</text>
				<text transform="matrix(1.3893 0 0 1.3893 707.9657 825.9545)" class="st6 st3">i</text>
				<text transform="matrix(1.3893 0 0 1.3893 713.6856 825.9545)" class="st6 st3">r</text>
				<text transform="matrix(1.3893 0 0 1.3893 720.6865 825.9545)" class="st6 st3"> </text>
				<text transform="matrix(1.3893 0 0 1.3893 593.686 851.955)" class="st6 st3">relatório de bens </text>
				<text transform="matrix(1.3893 0 0 1.3893 612.6859 877.9542)" class="st6 st3">q</text>
				<text transform="matrix(1.3893 0 0 1.3893 623.686 877.9542)" class="st6 st3">u</text>
				<text transform="matrix(1.3893 0 0 1.3893 635.6862 877.9542)" class="st6 st3">a</text>
				<text transform="matrix(1.3893 0 0 1.3893 645.6862 877.9542)" class="st6 st3">n</text>
				<text transform="matrix(1.3893 0 0 1.3893 657.6863 877.9542)" class="st6 st3">t</text>
				<text transform="matrix(1.3893 0 0 1.3893 664.9669 877.9542)" class="st6 st3">i</text>
				<text transform="matrix(1.3893 0 0 1.3893 669.6866 877.9542)" class="st6 st3">t</text>
				<text transform="matrix(1.3893 0 0 1.3893 677.6863 877.9542)" class="st6 st3">a</text>
				<text transform="matrix(1.3893 0 0 1.3893 687.6862 877.9542)" class="st6 st3">t</text>
				<text transform="matrix(1.3893 0 0 1.3893 694.9667 877.9542)" class="st6 st3">i</text>
				<text transform="matrix(1.3893 0 0 1.3893 700.6866 877.9542)" class="st6 st3">v</text>
				<text transform="matrix(1.3893 0 0 1.3893 709.6865 877.9542)" class="st6 st3">o</text>
				<text transform="matrix(1.3893 0 0 1.3893 720.6865 877.9542)" class="st6 st3">s</text>
				<path class="st4" d="M810.7,896.4c0-41.2,50.1-74.5,112-74.5s112,33.3,112,74.5s-50.1,74.5-112,74.5S810.7,937.6,810.7,896.4"/>
				<path class="st8" d="M808.7,894.4c0-41.2,50.1-74.5,112-74.5s112,33.3,112,74.5s-50.1,74.5-112,74.5S808.7,935.6,808.7,894.4"/>
				<path class="st1" d="M808.7,894.4c0-41.2,50.1-74.5,112-74.5s112,33.3,112,74.5s-50.1,74.5-112,74.5S808.7,935.6,808.7,894.4
					 M808.7,894.4c0-41.2,50.1-74.5,112-74.5s112,33.3,112,74.5s-50.1,74.5-112,74.5S808.7,935.6,808.7,894.4"/>
				<text transform="matrix(1.3893 0 0 1.3893 843.6865 994.9539)" class="st7 st3">(from Systema de </text>
				<text transform="matrix(1.3893 0 0 1.3893 874.6851 1020.9544)" class="st7 st3">Relatorios)</text>
				<text transform="matrix(1.3893 0 0 1.3893 811.6863 888.9547)" class="st6 st3">U</text>
				<text transform="matrix(1.3893 0 0 1.3893 825.6854 888.9547)" class="st6 st3">C</text>
				<text transform="matrix(1.3893 0 0 1.3893 836.6855 888.9547)" class="st6 st3">1</text>
				<text transform="matrix(1.3893 0 0 1.3893 846.6868 888.9547)" class="st6 st3">7</text>
				<text transform="matrix(1.3893 0 0 1.3893 857.6856 888.9547)" class="st6 st3">-</text>
				<text transform="matrix(1.3893 0 0 1.3893 863.6863 888.9547)" class="st6 st3">E</text>
				<text transform="matrix(1.3893 0 0 1.3893 874.6851 888.9547)" class="st6 st3">m</text>
				<text transform="matrix(1.3893 0 0 1.3893 890.6859 888.9547)" class="st6 st3">i</text>
				<text transform="matrix(1.3893 0 0 1.3893 895.6865 888.9547)" class="st6 st3">t</text>
				<text transform="matrix(1.3893 0 0 1.3893 902.9656 888.9547)" class="st6 st3">i</text>
				<text transform="matrix(1.3893 0 0 1.3893 908.6855 888.9547)" class="st6 st3">r</text>
				<text transform="matrix(1.3893 0 0 1.3893 915.6864 888.9547)" class="st6 st3"> </text>
				<text transform="matrix(1.3893 0 0 1.3893 920.6857 888.9547)" class="st6 st3">r</text>
				<text transform="matrix(1.3893 0 0 1.3893 928.6868 888.9547)" class="st6 st3">e</text>
				<text transform="matrix(1.3893 0 0 1.3893 938.6854 888.9547)" class="st6 st3">l</text>
				<text transform="matrix(1.3893 0 0 1.3893 943.686 888.9547)" class="st6 st3">a</text>
				<text transform="matrix(1.3893 0 0 1.3893 954.6862 888.9547)" class="st6 st3">t</text>
				<text transform="matrix(1.3893 0 0 1.3893 961.6857 888.9547)" class="st6 st3">ó</text>
				<text transform="matrix(1.3893 0 0 1.3893 973.686 888.9547)" class="st6 st3">r</text>
				<text transform="matrix(1.3893 0 0 1.3893 980.6855 888.9547)" class="st6 st3">i</text>
				<text transform="matrix(1.3893 0 0 1.3893 985.6862 888.9547)" class="st6 st3">o</text>
				<text transform="matrix(1.3893 0 0 1.3893 997.6864 888.9547)" class="st6 st3"> </text>
				<text transform="matrix(1.3893 0 0 1.3893 1002.6857 888.9547)" class="st6 st3">d</text>
				<text transform="matrix(1.3893 0 0 1.3893 1013.6858 888.9547)" class="st6 st3">e</text>
				<text transform="matrix(1.3893 0 0 1.3893 1024.6859 888.9547)" class="st6 st3"> </text>
				<text transform="matrix(1.3893 0 0 1.3893 849.6859 914.9552)" class="st6 st3">b</text>
				<text transform="matrix(1.3893 0 0 1.3893 860.686 914.9552)" class="st6 st3">e</text>
				<text transform="matrix(1.3893 0 0 1.3893 871.686 914.9552)" class="st6 st3">n</text>
				<text transform="matrix(1.3893 0 0 1.3893 882.6862 914.9552)" class="st6 st3">s</text>
				<text transform="matrix(1.3893 0 0 1.3893 891.686 914.9552)" class="st6 st3"> </text>
				<text transform="matrix(1.3893 0 0 1.3893 896.6852 914.9552)" class="st6 st3">f</text>
				<text transform="matrix(1.3893 0 0 1.3893 903.3306 914.9552)" class="st6 st3">i</text>
				<text transform="matrix(1.3893 0 0 1.3893 907.6854 914.9552)" class="st6 st3">n</text>
				<text transform="matrix(1.3893 0 0 1.3893 919.6856 914.9552)" class="st6 st3">a</text>
				<text transform="matrix(1.3893 0 0 1.3893 929.6855 914.9552)" class="st6 st3">n</text>
				<text transform="matrix(1.3893 0 0 1.3893 941.6858 914.9552)" class="st6 st3">c</text>
				<text transform="matrix(1.3893 0 0 1.3893 949.6855 914.9552)" class="st6 st3">e</text>
				<text transform="matrix(1.3893 0 0 1.3893 959.6854 914.9552)" class="st6 st3">i</text>
				<text transform="matrix(1.3893 0 0 1.3893 965.6862 914.9552)" class="st6 st3">r</text>
				<text transform="matrix(1.3893 0 0 1.3893 972.6858 914.9552)" class="st6 st3">o</text>
				<text transform="matrix(1.3893 0 0 1.3893 983.6859 914.9552)" class="st6 st3">s</text>
				<path class="st4" d="M1179.7,536.4c0-26.8,32.7-48.5,73-48.5s73,21.7,73,48.5s-32.7,48.5-73,48.5
					C1212.4,584.9,1179.7,563.2,1179.7,536.4"/>
				<path class="st8" d="M1177.7,534.4c0-26.8,32.7-48.5,73-48.5s73,21.7,73,48.5s-32.7,48.5-73,48.5
					C1210.4,582.9,1177.7,561.2,1177.7,534.4"/>
				<path class="st1" d="M1177.7,534.4c0-26.8,32.7-48.5,73-48.5s73,21.7,73,48.5s-32.7,48.5-73,48.5
					C1210.4,582.9,1177.7,561.2,1177.7,534.4 M1177.7,534.4c0-26.8,32.7-48.5,73-48.5s73,21.7,73,48.5s-32.7,48.5-73,48.5
					C1210.4,582.9,1177.7,561.2,1177.7,534.4"/>
				<text transform="matrix(1.3893 0 0 1.3893 1173.6852 608.9551)" class="st7 st3">(from Systema de </text>
				<text transform="matrix(1.3893 0 0 1.3893 1204.6852 634.9542)" class="st7 st3">Relatorios)</text>
				<text transform="matrix(1.3893 0 0 1.3893 1184.6852 528.955)" class="st6 st3">UC18-Exportar </text>
				<text transform="matrix(1.3893 0 0 1.3893 1217.6855 554.9542)" class="st6 st3">em PDF</text>
				<path class="st4" d="M935.7,515.4c0-26.8,32.7-48.5,73-48.5s73,21.7,73,48.5s-32.7,48.5-73,48.5S935.7,542.2,935.7,515.4"/>
				<path class="st8" d="M933.7,513.4c0-26.8,32.7-48.5,73-48.5s73,21.7,73,48.5s-32.7,48.5-73,48.5S933.7,540.2,933.7,513.4"/>
				<path class="st1" d="M933.7,513.4c0-26.8,32.7-48.5,73-48.5s73,21.7,73,48.5s-32.7,48.5-73,48.5S933.7,540.2,933.7,513.4
					 M933.7,513.4c0-26.8,32.7-48.5,73-48.5s73,21.7,73,48.5s-32.7,48.5-73,48.5S933.7,540.2,933.7,513.4"/>
				<text transform="matrix(1.3893 0 0 1.3893 929.6855 587.9548)" class="st7 st3">(from Systema de </text>
				<text transform="matrix(1.3893 0 0 1.3893 960.6856 613.9547)" class="st7 st3">Relatorios)</text>
				<text transform="matrix(1.3893 0 0 1.3893 940.6856 507.9547)" class="st6 st3">UC19-Exportar </text>
				<text transform="matrix(1.3893 0 0 1.3893 968.6866 533.9546)" class="st6 st3">em Excel</text>
				<path class="st4" d="M1141.7,935.4c0-26.8,32.7-48.5,73-48.5s73,21.7,73,48.5s-32.7,48.5-73,48.5
					C1174.4,983.9,1141.7,962.2,1141.7,935.4"/>
				<path class="st8" d="M1139.7,933.4c0-26.8,32.7-48.5,73-48.5s73,21.7,73,48.5s-32.7,48.5-73,48.5
					C1172.4,981.9,1139.7,960.2,1139.7,933.4"/>
				<path class="st1" d="M1139.7,933.4c0-26.8,32.7-48.5,73-48.5s73,21.7,73,48.5s-32.7,48.5-73,48.5
					C1172.4,981.9,1139.7,960.2,1139.7,933.4 M1139.7,933.4c0-26.8,32.7-48.5,73-48.5s73,21.7,73,48.5s-32.7,48.5-73,48.5
					C1172.4,981.9,1139.7,960.2,1139.7,933.4"/>
				<text transform="matrix(1.3893 0 0 1.3893 1135.6855 1007.9555)" class="st7 st3">(from Systema de </text>
				<text transform="matrix(1.3893 0 0 1.3893 1166.6855 1033.9547)" class="st7 st3">Relatorios)</text>
				<text transform="matrix(1.3893 0 0 1.3893 1150.6862 927.9554)" class="st6 st3">UC20-Expotar </text>
				<text transform="matrix(1.3893 0 0 1.3893 1179.6859 953.9547)" class="st6 st3">Em CSV</text>
				<path class="st1" d="M1264.7,694.9v-7 M1264.7,683.9l-1-7 M1263.7,672.9l-1-7 M1262.7,661.9l-1-7 M1261.7,650.9l-1-7
					 M1260.7,639.9l-1-7 M1259.7,628.9l-1-7 M1258.7,617.9l-1-7 M1257.7,606.9l-1-7 M1256.7,595.9l-1-7 M1255.7,584.9l-1-1"/>
				<path class="st1" d="M1264.7,694.9l-7-14 M1264.7,694.9l5-15"/>
				<path class="st1" d="M512.7,431.9l132-117"/>
				<path class="st1" d="M807.7,300.9l7,3 M818.7,305.9l7,4 M829.7,311.9l7,4 M840.7,317.9l7,4 M851.7,323.9l7,3 M862.7,328.9l7,4
					 M873.7,334.9l7,4 M884.7,340.9l7,4 M895.7,346.9l7,4 M906.7,352.9l7,3 M917.7,357.9l7,4 M928.7,363.9l7,4 M939.7,369.9l7,4
					 M950.7,375.9l7,4 M961.7,381.9l7,3 M972.7,386.9l7,4 M983.7,392.9l7,4 M994.7,398.9l7,4 M1005.7,404.9l7,4 M1016.7,410.9l7,3
					 M1027.7,415.9l7,4 M1038.7,421.9l7,4 M1049.7,427.9l7,4 M1060.7,433.9l7,4 M1071.7,439.9l7,3 M1082.7,444.9l7,4 M1093.7,450.9
					l7,4 M1104.7,456.9l7,4 M1115.7,462.9l7,4 M1126.7,468.9l7,3 M1137.7,473.9l7,4 M1148.7,479.9l7,4 M1159.7,485.9l7,4
					 M1170.7,491.9l7,4"/>
				<path class="st1" d="M807.7,300.9l16,2 M807.7,300.9l10,12"/>
				<path class="st1" d="M783.7,314.9l7,6 M794.7,323.9l7,7 M805.7,333.9l7,6 M816.7,343.9l7,6 M827.7,353.9l7,6 M838.7,363.9l7,6
					 M849.7,372.9l7,7 M860.7,382.9l7,7 M871.7,392.9l7,6 M882.7,402.9l7,6 M893.7,412.9l7,6 M904.7,422.9l7,6 M915.7,431.9l7,7
					 M926.7,441.9l7,6 M937.7,451.9l7,6 M948.7,461.9l3,3"/>
				<path class="st1" d="M783.7,314.9l15,6 M783.7,314.9l7,14"/>
				<path class="st1" d="M512.7,484.9l665,238"/>
				<path class="st1" d="M512.7,458.9l327.7-87.6c0.6,2.4,2.8,4.1,5.3,4.1c3.5,0.5,6-2,6-5c-0.5-0.9-0.6-1.4-0.7-1.8 M850.7,367.9
					l52.7-12.6c0.6,2.4,2.8,4.1,5.3,4.1c3.5,0.5,6-2,6-5c-0.5-0.9-0.6-1.4-0.7-1.8 M913.7,351.9l186-46"/>
				<path class="st1" d="M506.7,538.9l131,244"/>
				<path class="st1" d="M512.7,508.9l328,311"/>
				<path class="st1" d="M756.7,440.9l-1-7 M754.7,429.9l-2-7 M752.7,418.9l-2-7 M749.7,407.9l-1-7 M747.7,396.9l-2-7 M744.7,385.9
					l-1-7 M742.7,374.9l-2-7 M739.7,363.9l-1-7 M737.7,352.9l-2-7 M734.7,341.9l-1-7 M732.7,330.9l-2-7 M730.7,319.9l-2-5"/>
				<path class="st1" d="M756.7,440.9l-9-13 M756.7,440.9l3-16"/>
				<path class="st1" d="M512.7,471.9l183,13"/>
				<path class="st1" d="M842.7,453.9l7-3 M853.7,448.9l7-3 M864.7,443.9l7-3 M875.7,438.9l7-4 M886.7,432.9l7-3 M897.7,427.9l7-3
					 M908.7,422.9l7-4 M919.7,416.9l7-3 M930.7,411.9l7-3 M941.7,406.9l7-4 M952.7,400.9l7-3 M963.7,395.9l7-3 M974.7,390.9l7-4
					 M985.7,385.9l7-4 M996.7,379.9l7-3 M1007.7,374.9l7-3 M1018.7,369.9l7-4 M1029.7,363.9l7-3 M1040.7,358.9l7-3 M1051.7,353.9
					l7-4 M1062.7,347.9l7-3 M1073.7,342.9l7-3 M1084.7,337.9l7-4 M1095.7,331.9l4-2"/>
				<path class="st1" d="M842.7,453.9l11-12 M842.7,453.9l16-1"/>
				<path class="st1" d="M733.7,782.9l7-6 M744.7,772.9l7-7 M755.7,761.9l7-7 M766.7,750.9l7-7 M777.7,739.9l7-7 M788.7,728.9l7-7
					 M799.7,717.9l7-7 M810.7,707.9l7-7 M821.7,696.9l7-7 M832.7,685.9l7-7 M843.7,674.9l7-7 M854.7,663.9l7-7 M865.7,652.9l7-7
					 M876.7,641.9l7-6 M887.7,631.9l7-7 M898.7,620.9l7-7 M909.7,609.9l7-7 M920.7,598.9l7-7 M931.7,587.9l7-7 M942.7,576.9l7-7
					 M953.7,565.9l3-3"/>
				<path class="st1" d="M733.7,782.9l6-15 M733.7,782.9l15-6"/>
				<path class="st1" d="M1202.7,694.9l-7-6 M1191.7,684.9l-7-6 M1180.7,674.9l-7-6 M1169.7,664.9l-7-6 M1158.7,654.9l-7-7
					 M1147.7,644.9l-7-7 M1136.7,634.9l-7-7 M1125.7,623.9l-7-6 M1114.7,613.9l-7-6 M1103.7,603.9l-7-6 M1092.7,593.9l-7-7
					 M1081.7,583.9l-7-7 M1070.7,573.9l-7-7"/>
				<path class="st1" d="M1202.7,694.9l-15-6 M1202.7,694.9l-7-15"/>
				<path class="st1" d="M1222.7,351.9l1,7 M1223.7,362.9l1,7 M1225.7,373.9l1,7 M1226.7,384.9l1,7 M1228.7,395.9l1,7 M1230.7,406.9
					l1,7 M1231.7,417.9l1,7 M1233.7,428.9l1,7 M1235.7,439.9l1,7 M1236.7,450.9l1,7 M1238.7,461.9l1,7 M1240.7,472.9l1,7
					 M1241.7,483.9l1,2"/>
				<path class="st1" d="M1222.7,351.9l8,14 M1222.7,351.9l-4,16"/>
				<path class="st1" d="M1146.7,351.9l-6,7 M1137.7,362.9l-6,7 M1127.7,373.9l-6,7 M1118.7,384.9l-6,7 M1108.7,395.9l-6,7
					 M1099.7,406.9l-6,7 M1089.7,417.9l-6,7 M1080.7,428.9l-6,7 M1070.7,439.9l-6,7 M1061.7,450.9l-6,7 M1051.7,461.9l-3,3"/>
				<path class="st1" d="M1146.7,351.9l-5,15 M1146.7,351.9l-14,7"/>
				<path class="st1" d="M754.7,538.9l-1,7 M751.7,549.9l-1,7 M748.7,560.9l-1,7 M745.7,571.9l-1,7 M742.7,582.9l-2,7 M739.7,593.9
					l-2,7 M736.7,604.9l-2,7 M733.7,615.9l-2,7 M730.7,626.9l-2,7 M727.7,637.9l-2,7 M724.7,648.9l-2,7 M721.7,659.9l-2,7
					 M718.7,670.9l-2,7 M715.7,681.9l-2,7 M712.7,692.9l-2,7 M709.7,703.9l-2,7 M706.7,714.9l-2,7 M703.7,725.9l-2,7 M700.7,736.9
					l-2,7 M697.7,747.9l-2,7 M694.7,758.9l-2,7 M691.7,769.9l-2,7 M688.7,780.9l-1,2"/>
				<path class="st1" d="M754.7,538.9l2,16 M754.7,538.9l-10,13"/>
				<path class="st1" d="M786.7,538.9l2,7 M790.7,549.9l2,7 M794.7,560.9l2,7 M798.7,571.9l2,7 M802.7,582.9l3,7 M806.7,593.9l3,7
					 M810.7,604.9l3,7 M814.7,615.9l3,7 M818.7,626.9l3,7 M822.7,637.9l3,7 M827.7,648.9l2,7 M831.7,659.9l2,7 M835.7,670.9l2,7
					 M839.7,681.9l3,7 M843.7,692.9l3,7 M847.7,703.9l3,7 M851.7,714.9l3,7 M855.7,725.9l3,7 M859.7,736.9l3,7 M864.7,747.9l2,7
					 M868.7,758.9l2,7 M872.7,769.9l2,7 M876.7,780.9l3,7 M880.7,791.9l3,7 M884.7,802.9l3,7 M888.7,813.9l3,6"/>
				<path class="st1" d="M786.7,538.9l11,12 M786.7,538.9v16"/>
				<path class="st1" d="M988.7,819.9l6-7 M998.7,808.9l6-7 M1008.7,797.9l6-7 M1018.7,786.9l6-7 M1028.7,775.9l6-7 M1038.7,764.9
					l7-7 M1048.7,753.9l7-7 M1058.7,742.9l7-7 M1068.7,731.9l7-7 M1079.7,720.9l6-7 M1089.7,709.9l6-7 M1099.7,698.9l6-7
					 M1109.7,687.9l6-7 M1119.7,676.9l6-7 M1129.7,665.9l7-7 M1139.7,654.9l7-7 M1149.7,643.9l7-7 M1159.7,632.9l7-7 M1170.7,621.9
					l6-7 M1180.7,610.9l6-7 M1190.7,599.9l6-7 M1200.7,588.9l5-5"/>
				<path class="st1" d="M988.7,819.9l6-15 M988.7,819.9l15-7"/>
				<path class="st1" d="M764.7,794.9l7-3 M775.7,789.9l7-4 M786.7,783.9l7-4 M797.7,777.9l7-4 M808.7,771.9l7-4 M819.7,765.9l7-4
					 M830.7,759.9l7-4 M841.7,753.9l7-3 M852.7,747.9l7-3 M863.7,742.9l7-4 M874.7,736.9l7-4 M885.7,730.9l7-4 M896.7,724.9l7-4
					 M907.7,718.9l7-4 M918.7,712.9l7-4 M929.7,706.9l7-4 M940.7,700.9l7-3 M951.7,694.9l7-3 M962.7,689.9l7-4 M973.7,683.9l7-4
					 M984.7,677.9l7-4 M995.7,671.9l7-4 M1006.7,665.9l7-4 M1017.7,659.9l7-4 M1028.7,653.9l7-4 M1039.7,647.9l7-3 M1050.7,641.9
					l7-3 M1061.7,636.9l7-4 M1072.7,630.9l7-4 M1083.7,624.9l7-4 M1094.7,618.9l7-4 M1105.7,612.9l7-4 M1116.7,606.9l7-4
					 M1127.7,600.9l7-3 M1138.7,594.9l7-3 M1149.7,588.9l7-3 M1160.7,583.9l7-4 M1171.7,577.9l6-4"/>
				<path class="st1" d="M764.7,794.9l10-12 M764.7,794.9l16-2"/>
				<path class="st1" d="M936.7,819.9l1-7 M938.7,808.9l2-7 M940.7,797.9l2-7 M943.7,786.9l2-7 M945.7,775.9l2-7 M948.7,764.9l1-7
					 M950.7,753.9l2-7 M953.7,742.9l1-7 M955.7,731.9l2-7 M958.7,720.9l1-7 M960.7,709.9l2-7 M963.7,698.9l1-7 M965.7,687.9l2-7
					 M968.7,676.9l1-7 M970.7,665.9l2-7 M973.7,654.9l1-7 M975.7,643.9l2-7 M978.7,632.9l1-7 M980.7,621.9l2-7 M983.7,610.9l1-7
					 M985.7,599.9l2-7 M988.7,588.9l1-7 M990.7,577.9l2-7 M993.7,566.9l1-4"/>
				<path class="st1" d="M936.7,819.9l-3-16 M936.7,819.9l9-13"/>
				<path class="st1" d="M842.7,528.9l7,3 M853.7,533.9l7,4 M864.7,539.9l7,4 M875.7,545.9l7,4 M886.7,551.9l7,4 M897.7,557.9l7,3
					 M908.7,563.9l7,3 M919.7,568.9l7,4 M930.7,574.9l7,4 M941.7,580.9l7,4 M952.7,586.9l7,4 M963.7,592.9l7,4 M974.7,598.9l7,3
					 M985.7,603.9l7,4 M996.7,609.9l7,4 M1007.7,615.9l7,4 M1018.7,621.9l7,4 M1029.7,627.9l7,4 M1040.7,633.9l7,3 M1051.7,639.9
					l7,3 M1062.7,644.9l7,4 M1073.7,650.9l7,4 M1084.7,656.9l7,4 M1095.7,662.9l7,4 M1106.7,668.9l7,3 M1117.7,674.9l7,3
					 M1128.7,679.9l7,4 M1139.7,685.9l7,4 M1150.7,691.9l7,4 M1161.7,697.9l7,4 M1172.7,703.9l5,3"/>
				<path class="st1" d="M842.7,528.9l16,2 M842.7,528.9l10,12"/>
				<g transform="matrix(1 0 0 -1 879 527)">
					<polygon class="st0" points="362.7,-114.9 401.7,-114.9 401.7,-114.9 					"/>
				</g>
				<text transform="matrix(1.3893 0 0 1.3893 1241.6859 650.9543)" class="st2 st9">«extend»</text>
				<g transform="matrix(1 0 0 -1 717 296)">
					<polygon class="st0" points="362.7,-114.9 401.7,-114.9 401.7,-114.9 					"/>
				</g>
				<text transform="matrix(1.3893 0 0 1.3893 1079.6863 419.9546)" class="st2 st9">«extend»</text>
				<g transform="matrix(1 0 0 -1 628 506)">
					<polygon class="st0" points="362.7,-114.9 402.7,-114.9 402.7,-114.9 					"/>
				</g>
				<text transform="matrix(1.3893 0 0 1.3893 990.6854 629.9547)" class="st2 st9">«include»</text>
				<g transform="matrix(1 0 0 -1 487 278)">
					<polygon class="st0" points="362.7,-114.9 401.7,-114.9 401.7,-114.9 					"/>
				</g>
				<text transform="matrix(1.3893 0 0 1.3893 849.6859 401.9548)" class="st2 st9">«extend»</text>
				<g transform="matrix(1 0 0 -1 852 307)">
					<polygon class="st0" points="362.7,-114.9 401.7,-114.9 401.7,-114.9 					"/>
				</g>
				<text transform="matrix(1.3893 0 0 1.3893 1214.6865 430.9544)" class="st2 st9">«extend»</text>
				<g transform="matrix(1 0 0 -1 585 579)">
					<polygon class="st0" points="362.7,-114.9 401.7,-114.9 401.7,-114.9 					"/>
				</g>
				<text transform="matrix(1.3893 0 0 1.3893 947.6852 702.954)" class="st2 st9">«extend»</text>
				<g transform="matrix(1 0 0 -1 361 266)">
					<polygon class="st0" points="362.7,-114.9 402.7,-114.9 402.7,-114.9 					"/>
				</g>
				<text transform="matrix(1.3893 0 0 1.3893 723.6855 389.9544)" class="st2 st9">«include»</text>
				<g transform="matrix(1 0 0 -1 590 572)">
					<polygon class="st0" points="362.7,-114.9 401.7,-114.9 401.7,-114.9 					"/>
				</g>
				<text transform="matrix(1.3893 0 0 1.3893 952.6859 695.9546)" class="st2 st9">«extend»</text>
				<g transform="matrix(1 0 0 -1 716 590)">
					<polygon class="st0" points="362.7,-114.9 401.7,-114.9 401.7,-114.9 					"/>
				</g>
				<text transform="matrix(1.3893 0 0 1.3893 1078.6863 713.9544)" class="st2 st9">«extend»</text>
				<g transform="matrix(1 0 0 -1 750 517)">
					<polygon class="st0" points="362.7,-114.9 401.7,-114.9 401.7,-114.9 					"/>
				</g>
				<text transform="matrix(1.3893 0 0 1.3893 1112.6865 640.9544)" class="st2 st9">«extend»</text>
				<g transform="matrix(1 0 0 -1 612 286)">
					<polygon class="st0" points="362.7,-114.9 401.7,-114.9 401.7,-114.9 					"/>
				</g>
				<text transform="matrix(1.3893 0 0 1.3893 974.686 409.9548)" class="st2 st9">«extend»</text>
				<g transform="matrix(1 0 0 -1 457 567)">
					<polygon class="st0" points="362.7,-114.9 402.7,-114.9 402.7,-114.9 					"/>
				</g>
				<text transform="matrix(1.3893 0 0 1.3893 819.686 690.955)" class="st2 st9">«include»</text>
				<g transform="matrix(1 0 0 -1 464 561)">
					<polygon class="st0" points="362.7,-114.9 401.7,-114.9 401.7,-114.9 					"/>
				</g>
				<text transform="matrix(1.3893 0 0 1.3893 826.6855 684.9542)" class="st2 st9">«extend»</text>
				<g transform="matrix(1 0 0 -1 339 549)">
					<polygon class="st0" points="362.7,-114.9 402.7,-114.9 402.7,-114.9 					"/>
				</g>
				<text transform="matrix(1.3893 0 0 1.3893 701.6867 672.9551)" class="st2 st9">«include»</text>
				<g transform="matrix(1 0 0 -1 589 280)">
					<polygon class="st0" points="362.7,-114.9 402.7,-114.9 402.7,-114.9 					"/>
				</g>
				<text transform="matrix(1.3893 0 0 1.3893 951.6858 403.954)" class="st2 st9">«include»</text>
			</g>
		</g>
	</g>
</g>
</svg>
